<svg xmlns="http://www.w3.org/2000/svg" viewBox="0 0 900 1260" role="img" aria-label="Construcción - Diseño">
  <rect width="900" height="1260" rx="54" fill="#1f2937"/>
  <g opacity=".08" stroke="#fff8de" stroke-width="2">
    <path d="M 120 0 V 1260"/><path d="M 240 0 V 1260"/><path d="M 360 0 V 1260"/><path d="M 480 0 V 1260"/><path d="M 600 0 V 1260"/><path d="M 720 0 V 1260"/><path d="M 840 0 V 1260"/>
    <path d="M 0 140 H 1260"/><path d="M 0 280 H 1260"/><path d="M 0 420 H 1260"/><path d="M 0 560 H 1260"/><path d="M 0 700 H 1260"/><path d="M 0 840 H 1260"/><path d="M 0 980 H 1260"/><path d="M 0 1120 H 1260"/>
  </g>
  <text x="64" y="112" font-family="Arial, Helvetica, sans-serif" font-size="44" font-weight="900" fill="#fff8de" opacity=".92">4</text>
  <text x="64" y="182" font-family="Arial, Helvetica, sans-serif" font-size="34" font-weight="900" fill="#fff8de" opacity=".88">DISEÑO</text>
<path d="M240 720 H660 M240 620 H580 M240 520 H620 M240 420 H500" stroke="#fff8de" stroke-width="18" stroke-linecap="round"/><g fill="#ffc200"><circle cx="210" cy="720" r="12"/><circle cx="210" cy="620" r="12"/><circle cx="210" cy="520" r="12"/><circle cx="210" cy="420" r="12"/></g></svg>