<svg xmlns="http://www.w3.org/2000/svg" viewBox="0 0 900 1260" role="img" aria-label="Construcción - Análisis">
  <rect width="900" height="1260" rx="54" fill="#1f2937"/>
  <g opacity=".08" stroke="#fff8de" stroke-width="2">
    <path d="M 120 0 V 1260"/><path d="M 240 0 V 1260"/><path d="M 360 0 V 1260"/><path d="M 480 0 V 1260"/><path d="M 600 0 V 1260"/><path d="M 720 0 V 1260"/><path d="M 840 0 V 1260"/>
    <path d="M 0 140 H 1260"/><path d="M 0 280 H 1260"/><path d="M 0 420 H 1260"/><path d="M 0 560 H 1260"/><path d="M 0 700 H 1260"/><path d="M 0 840 H 1260"/><path d="M 0 980 H 1260"/><path d="M 0 1120 H 1260"/>
  </g>
  <text x="64" y="112" font-family="Arial, Helvetica, sans-serif" font-size="44" font-weight="900" fill="#fff8de" opacity=".92">4</text>
  <text x="64" y="182" font-family="Arial, Helvetica, sans-serif" font-size="34" font-weight="900" fill="#fff8de" opacity=".88">ANÁLISIS</text>
<rect x="130" y="220" width="640" height="640" rx="34" fill="none" stroke="#fff8de" stroke-width="12"/><path d="M130 340 H770 M330 340 V860 M530 340 V860" stroke="#fff8de" stroke-width="8" opacity=".75"/><rect x="190" y="590" width="44" height="120" rx="10" fill="#ffc200"/><rect x="262" y="530" width="44" height="180" rx="10" fill="#ffc200"/><rect x="334" y="465" width="44" height="245" rx="10" fill="#ffc200"/></svg>