<svg xmlns="http://www.w3.org/2000/svg" viewBox="0 0 900 1260" role="img" aria-label="Entrega - Publicación">
  <rect width="900" height="1260" rx="54" fill="#facc15"/>
  <g opacity=".08" stroke="#111111" stroke-width="2">
    <path d="M 120 0 V 1260"/><path d="M 240 0 V 1260"/><path d="M 360 0 V 1260"/><path d="M 480 0 V 1260"/><path d="M 600 0 V 1260"/><path d="M 720 0 V 1260"/><path d="M 840 0 V 1260"/>
    <path d="M 0 140 H 1260"/><path d="M 0 280 H 1260"/><path d="M 0 420 H 1260"/><path d="M 0 560 H 1260"/><path d="M 0 700 H 1260"/><path d="M 0 840 H 1260"/><path d="M 0 980 H 1260"/><path d="M 0 1120 H 1260"/>
  </g>
  <text x="64" y="112" font-family="Arial, Helvetica, sans-serif" font-size="44" font-weight="900" fill="#111111" opacity=".92">6</text>
  <text x="64" y="182" font-family="Arial, Helvetica, sans-serif" font-size="34" font-weight="900" fill="#111111" opacity=".88">PUBLICACIÓN</text>
<rect x="180" y="200" width="540" height="760" rx="40" fill="none" stroke="#111111" stroke-width="14"/><path d="M270 340 H650 M270 460 H620 M270 580 H640 M270 700 H560" stroke="#111111" stroke-width="18" stroke-linecap="round"/><path d="M340 820 l88 84 184-206" fill="none" stroke="#fff8de" stroke-width="24" stroke-linecap="round" stroke-linejoin="round"/></svg>