<svg xmlns="http://www.w3.org/2000/svg" viewBox="0 0 900 1260" role="img" aria-label="Construcción - Patrones">
  <rect width="900" height="1260" rx="54" fill="#1f2937"/>
  <g opacity=".08" stroke="#fff8de" stroke-width="2">
    <path d="M 120 0 V 1260"/><path d="M 240 0 V 1260"/><path d="M 360 0 V 1260"/><path d="M 480 0 V 1260"/><path d="M 600 0 V 1260"/><path d="M 720 0 V 1260"/><path d="M 840 0 V 1260"/>
    <path d="M 0 140 H 1260"/><path d="M 0 280 H 1260"/><path d="M 0 420 H 1260"/><path d="M 0 560 H 1260"/><path d="M 0 700 H 1260"/><path d="M 0 840 H 1260"/><path d="M 0 980 H 1260"/><path d="M 0 1120 H 1260"/>
  </g>
  <text x="64" y="112" font-family="Arial, Helvetica, sans-serif" font-size="44" font-weight="900" fill="#fff8de" opacity=".92">4</text>
  <text x="64" y="182" font-family="Arial, Helvetica, sans-serif" font-size="34" font-weight="900" fill="#fff8de" opacity=".88">PATRONES</text>
<circle cx="300" cy="430" r="90" fill="none" stroke="#fff8de" stroke-width="16"/><circle cx="600" cy="430" r="90" fill="none" stroke="#fff8de" stroke-width="16"/><circle cx="450" cy="660" r="90" fill="none" stroke="#fff8de" stroke-width="16"/><path d="M375 490 L525 600 M525 490 L375 600" stroke="#ffc200" stroke-width="12"/></svg>