<svg xmlns="http://www.w3.org/2000/svg" viewBox="0 0 900 1260" role="img" aria-label="Entrega - Mejoras">
  <rect width="900" height="1260" rx="54" fill="#facc15"/>
  <g opacity=".08" stroke="#111111" stroke-width="2">
    <path d="M 120 0 V 1260"/><path d="M 240 0 V 1260"/><path d="M 360 0 V 1260"/><path d="M 480 0 V 1260"/><path d="M 600 0 V 1260"/><path d="M 720 0 V 1260"/><path d="M 840 0 V 1260"/>
    <path d="M 0 140 H 1260"/><path d="M 0 280 H 1260"/><path d="M 0 420 H 1260"/><path d="M 0 560 H 1260"/><path d="M 0 700 H 1260"/><path d="M 0 840 H 1260"/><path d="M 0 980 H 1260"/><path d="M 0 1120 H 1260"/>
  </g>
  <text x="64" y="112" font-family="Arial, Helvetica, sans-serif" font-size="44" font-weight="900" fill="#111111" opacity=".92">6</text>
  <text x="64" y="182" font-family="Arial, Helvetica, sans-serif" font-size="34" font-weight="900" fill="#111111" opacity=".88">MEJORAS</text>
<circle cx="450" cy="520" r="220" fill="#fff8de" fill-opacity=".12" stroke="#111111" stroke-width="12"/><path d="M310 650 H590" stroke="#111111" stroke-width="18"/><path d="M450 510 V790" stroke="#111111" stroke-width="18"/><g fill="#111111"><circle cx="450" cy="510" r="16"/><circle cx="450" cy="650" r="16"/><circle cx="590" cy="650" r="16"/></g></svg>