<svg xmlns="http://www.w3.org/2000/svg" viewBox="0 0 7410 3900" role="img" aria-label="United States flag">
  <rect width="7410" height="3900" fill="#b22234"/>
  <g fill="#fff">
    <rect y="300" width="7410" height="300"/>
    <rect y="900" width="7410" height="300"/>
    <rect y="1500" width="7410" height="300"/>
    <rect y="2100" width="7410" height="300"/>
    <rect y="2700" width="7410" height="300"/>
    <rect y="3300" width="7410" height="300"/>
  </g>
  <rect width="2964" height="2100" fill="#3c3b6e"/>
  <g fill="#fff">
    <g id="row6">
      <circle cx="247" cy="175" r="58"/>
      <circle cx="741" cy="175" r="58"/>
      <circle cx="1235" cy="175" r="58"/>
      <circle cx="1729" cy="175" r="58"/>
      <circle cx="2223" cy="175" r="58"/>
      <circle cx="2717" cy="175" r="58"/>
    </g>
    <g id="row5">
      <circle cx="494" cy="350" r="58"/>
      <circle cx="988" cy="350" r="58"/>
      <circle cx="1482" cy="350" r="58"/>
      <circle cx="1976" cy="350" r="58"/>
      <circle cx="2470" cy="350" r="58"/>
    </g>
    <use href="#row6" y="0"/>
    <use href="#row5" y="0"/>
    <use href="#row6" y="350"/>
    <use href="#row5" y="350"/>
    <use href="#row6" y="700"/>
    <use href="#row5" y="700"/>
    <use href="#row6" y="1050"/>
    <use href="#row5" y="1050"/>
    <use href="#row6" y="1400"/>
  </g>
</svg>
